<svg height="20" viewBox="0 0 1024 1024" width="20" xmlns="http://www.w3.org/2000/svg"><path d="m561.17013333 509.06026667 296.85653334-295.32053334c14.03733333-13.968 14.1088-36.60053333.1408-50.63786666-13.99893333-14.06826667-36.592-14.10773333-50.62933334-.1408l-296.93333333 295.3536-294.3488-295.2448c-13.9328-13.96693333-36.59733333-14.03733333-50.63466667-.07146667-14.00426667 13.96586667-14.03733333 36.63146667-.0704 50.6688l294.27733334 295.1744-296.71466667 295.14026667c-14.0384 13.968-14.1088 36.59733333-.14293333 50.63786666a35.7216 35.7216 0 0 0 25.3856 10.56c9.13066667 0 18.26666667-3.4688 25.25013333-10.4192l296.78613333-295.2128 297.03786667 297.93493334c6.9824 7.02186667 16.15253333 10.53013333 25.35253333 10.53013333a35.72906667 35.72906667 0 0 0 25.28213334-10.45973333c13.99893333-13.96586667 14.03733333-36.592.07146666-50.62933334zm0 0" fill="#8a8a8a"/></svg>