<svg height="32" viewBox="0 0 1024 1024" width="32" xmlns="http://www.w3.org/2000/svg"><g fill="#8a8a8a"><path d="m133.310936 296.552327h757.206115c19.781623 0 35.950949-16.169326 35.950949-35.950949s-15.997312-35.950949-35.950949-35.950949l-757.206115-.000001c-19.781623 0-35.950949 16.169326-35.950949 35.950949s16.169326 35.95095 35.950949 35.95095z"/><path d="m890.51705 476.135058h-757.206114c-19.781623 0-35.950949 16.169326-35.950949 35.950949s16.169326 35.950949 35.950949 35.950949h757.206115c19.781623 0 35.950949-16.169326 35.950949-35.950949-.000001-19.781623-16.169327-35.950949-35.95095-35.950949z"/><path d="m890.51705 727.447673h-757.206114c-19.781623 0-35.950949 15.997312-35.950949 35.950949s16.169326 35.950949 35.950949 35.950949h757.206115c19.781623 0 35.950949-15.997312 35.950949-35.950949s-16.169327-35.950949-35.95095-35.950949z"/></g></svg>