<svg height="32" viewBox="0 0 1024 1024" width="32" xmlns="http://www.w3.org/2000/svg"><path d="m852.8 261.6 2.3 1.2z" fill="#68bb8d"/><path d="m514.2 99.9c-228.5 0-413.7 185.2-413.7 413.7s185.2 413.7 413.7 413.7 413.6-185.3 413.6-413.8-185.3-413.6-413.6-413.6zm197.8 330.8-159 156.3-77 75.3c-.3.4-.7.8-1.2 1.3-.6.6-1.3 1.2-2 1.8-4.8 4.6-11.1 7.1-17.8 7.1h-1.1c-7 0-13.5-2.6-18.3-7.4-.7-.6-1.3-1.2-1.9-1.7-.4-.4-.7-.7-1-1.1l-128.4-128.4c-10.4-10.4-9.7-28 1.5-39.2 5.7-5.7 13.3-8.9 21-8.9 7 0 13.5 2.6 18.3 7.4l109.4 109.4 58.1-56.8 159.1-156.3c4.8-4.7 11.2-7.2 18.1-7.2 7.8 0 15.5 3.3 21.2 9.1 11 11.4 11.6 29 1 39.3z" fill="#338bff"/></svg>